<?xml version="1.0" encoding="UTF-8"?>
<!DOCTYPE svg PUBLIC "-//W3C//DTD SVG 1.1//EN" "http://www.w3.org/Graphics/SVG/1.1/DTD/svg11.dtd">
<svg xmlns="http://www.w3.org/2000/svg" version="1.1" width="944px" height="236px" style="shape-rendering:geometricPrecision; text-rendering:geometricPrecision; image-rendering:optimizeQuality; fill-rule:evenodd; clip-rule:evenodd" xmlns:xlink="http://www.w3.org/1999/xlink">
<g><path style="opacity:1" fill="#fefefe" d="M -0.5,-0.5 C 314.167,-0.5 628.833,-0.5 943.5,-0.5C 943.5,78.1667 943.5,156.833 943.5,235.5C 628.833,235.5 314.167,235.5 -0.5,235.5C -0.5,156.833 -0.5,78.1667 -0.5,-0.5 Z"/></g>
<g><path style="opacity:1" fill="#42acdb" d="M 172.5,25.5 C 178.176,25.3339 183.843,25.5006 189.5,26C 190.833,31 190.833,36 189.5,41C 183.843,41.4994 178.176,41.6661 172.5,41.5C 172.5,36.1667 172.5,30.8333 172.5,25.5 Z"/></g>
<g><path style="opacity:1" fill="#37a7d9" d="M 643.5,25.5 C 649.5,25.5 655.5,25.5 661.5,25.5C 661.805,30.7616 661.471,35.9283 660.5,41C 654.843,41.4994 649.176,41.6661 643.5,41.5C 643.5,36.1667 643.5,30.8333 643.5,25.5 Z"/></g>
<g><path style="opacity:1" fill="#30a2d3" d="M 38.5,27.5 C 49.9494,26.7416 60.9494,28.5749 71.5,33C 72.4732,38.4066 72.8066,43.9066 72.5,49.5C 71.1266,49.6567 69.7932,49.49 68.5,49C 59.0984,42.0651 48.765,40.0651 37.5,43C 31.162,46.3862 30.8287,50.3862 36.5,55C 45.1865,57.2049 53.8532,59.5382 62.5,62C 76.1575,69.976 78.9908,80.8094 71,94.5C 62.9479,102.77 53.1146,106.436 41.5,105.5C 32.5337,105.74 23.867,104.24 15.5,101C 13.5698,95.1263 12.9032,88.9596 13.5,82.5C 14.8734,82.3433 16.2068,82.51 17.5,83C 27.9087,91.8541 39.5753,94.1874 52.5,90C 56.8829,87.0819 57.5496,83.4153 54.5,79C 48.0611,76.4813 41.3944,74.8146 34.5,74C 18.6123,70.3949 12.1123,60.5615 15,44.5C 19.9219,34.7907 27.7553,29.1241 38.5,27.5 Z"/></g>
<g><path style="opacity:1" fill="#0172c1" d="M 645.5,27.5 C 650.167,27.5 654.833,27.5 659.5,27.5C 659.5,31.5 659.5,35.5 659.5,39.5C 654.833,39.5 650.167,39.5 645.5,39.5C 645.5,35.5 645.5,31.5 645.5,27.5 Z"/></g>
<g><path style="opacity:1" fill="#2c9dce" d="M 390.5,70.5 C 379.5,70.5 368.5,70.5 357.5,70.5C 357.5,77.1667 357.5,83.8333 357.5,90.5C 368.833,90.5 380.167,90.5 391.5,90.5C 392.486,94.97 392.819,99.6367 392.5,104.5C 374.833,104.5 357.167,104.5 339.5,104.5C 339.333,79.4978 339.5,54.4978 340,29.5C 357.423,28.5079 374.923,28.1746 392.5,28.5C 392.5,33.5 392.5,38.5 392.5,43.5C 380.833,43.5 369.167,43.5 357.5,43.5C 357.5,47.8333 357.5,52.1667 357.5,56.5C 368.5,56.5 379.5,56.5 390.5,56.5C 390.5,61.1667 390.5,65.8333 390.5,70.5 Z"/></g>
<g><path style="opacity:1" fill="#08506c" d="M 38.5,29.5 C 49.253,28.7182 59.5864,30.3848 69.5,34.5C 70.8333,38.8333 70.8333,43.1667 69.5,47.5C 59.6131,39.8186 48.6131,37.6519 36.5,41C 29.0142,45.9078 28.6808,51.2412 35.5,57C 45.8438,58.8684 55.8438,61.8684 65.5,66C 76.3262,76.9356 75.9928,87.6023 64.5,98C 53.757,103.232 42.4236,104.899 30.5,103C 25.3752,102.345 20.5419,100.845 16,98.5C 15.3333,93.8333 15.3333,89.1667 16,84.5C 27.1647,93.8931 39.6647,96.3931 53.5,92C 58.0685,89.4586 59.5685,85.6253 58,80.5C 57.1667,79.5 56.3333,78.5 55.5,77.5C 46.9892,74.4969 38.3226,71.9969 29.5,70C 17.7142,64.3382 13.8808,55.1716 18,42.5C 23.3798,35.7347 30.2131,31.4014 38.5,29.5 Z"/></g>
<g><path style="opacity:1" fill="#084f6a" d="M 341.5,31.5 C 357.833,31.5 374.167,31.5 390.5,31.5C 390.5,34.8333 390.5,38.1667 390.5,41.5C 378.833,41.5 367.167,41.5 355.5,41.5C 355.192,47.4254 355.525,53.2588 356.5,59C 367.161,59.4998 377.828,59.6665 388.5,59.5C 388.5,62.5 388.5,65.5 388.5,68.5C 377.828,68.3335 367.161,68.5002 356.5,69C 355.518,76.747 355.185,84.5803 355.5,92.5C 367.167,92.5 378.833,92.5 390.5,92.5C 390.5,95.8333 390.5,99.1667 390.5,102.5C 374.167,102.5 357.833,102.5 341.5,102.5C 341.5,78.8333 341.5,55.1667 341.5,31.5 Z"/></g>
<g><path style="opacity:1" fill="#0b759d" d="M 173.5,27.5 C 178.5,27.5 183.5,27.5 188.5,27.5C 188.5,31.5 188.5,35.5 188.5,39.5C 183.5,39.5 178.5,39.5 173.5,39.5C 173.5,35.5 173.5,31.5 173.5,27.5 Z"/></g>
<g><path style="opacity:1" fill="#084f6a" d="M 174.5,28.5 C 178.833,28.5 183.167,28.5 187.5,28.5C 187.5,31.8333 187.5,35.1667 187.5,38.5C 183.167,38.5 178.833,38.5 174.5,38.5C 174.5,35.1667 174.5,31.8333 174.5,28.5 Z"/></g>
<g><path style="opacity:1" fill="#24a1d4" d="M 173.5,45.5 C 178.833,45.5 184.167,45.5 189.5,45.5C 189.5,65.1667 189.5,84.8333 189.5,104.5C 183.833,104.5 178.167,104.5 172.5,104.5C 172.179,84.7574 172.513,65.0907 173.5,45.5 Z"/></g>
<g><path style="opacity:1" fill="#289fd2" d="M 232.5,44.5 C 241.817,43.4105 248.983,46.7438 254,54.5C 260.898,46.9654 269.398,43.7988 279.5,45C 286.508,47.3438 290.674,52.1771 292,59.5C 292.5,74.4963 292.667,89.4963 292.5,104.5C 286.833,104.5 281.167,104.5 275.5,104.5C 275.667,91.4957 275.5,78.4957 275,65.5C 273.738,61.0278 270.738,59.0278 266,59.5C 262.524,59.4863 259.357,60.4863 256.5,62.5C 255.501,76.4841 255.167,90.4841 255.5,104.5C 249.833,104.5 244.167,104.5 238.5,104.5C 238.667,91.1625 238.5,77.8292 238,64.5C 236.728,60.4395 233.895,58.7729 229.5,59.5C 227.833,59.6667 226.167,59.8333 224.5,60C 223.335,61.0836 222.002,61.9169 220.5,62.5C 219.501,76.4841 219.167,90.4841 219.5,104.5C 213.833,104.5 208.167,104.5 202.5,104.5C 202.333,85.1638 202.5,65.8305 203,46.5C 208.407,45.5268 213.907,45.1934 219.5,45.5C 219.337,47.8568 219.503,50.1902 220,52.5C 224.01,49.4221 228.177,46.7554 232.5,44.5 Z"/></g>
<g><path style="opacity:1" fill="#08506c" d="M 233.5,46.5 C 242.79,45.4771 249.457,49.1438 253.5,57.5C 258.178,52.9866 263.511,49.4866 269.5,47C 280.761,44.8755 287.594,49.3755 290,60.5C 290.5,74.496 290.667,88.496 290.5,102.5C 286.167,102.5 281.833,102.5 277.5,102.5C 277.903,89.115 277.403,75.7817 276,62.5C 273.925,58.4625 270.592,56.7959 266,57.5C 261.62,57.2739 257.787,58.6072 254.5,61.5C 253.501,75.1504 253.167,88.8171 253.5,102.5C 249.167,102.5 244.833,102.5 240.5,102.5C 240.667,89.4957 240.5,76.4957 240,63.5C 238.457,58.7217 235.124,56.7217 230,57.5C 225.531,57.4 221.531,58.7334 218,61.5C 217.5,75.1626 217.333,88.8293 217.5,102.5C 213.167,102.5 208.833,102.5 204.5,102.5C 204.5,84.1667 204.5,65.8333 204.5,47.5C 208.833,47.5 213.167,47.5 217.5,47.5C 217.5,50.1667 217.5,52.8333 217.5,55.5C 218.552,55.6495 219.552,55.4828 220.5,55C 224.59,51.6329 228.924,48.7995 233.5,46.5 Z"/></g>
<g><path style="opacity:1" fill="#259fd2" d="M 487.5,102.5 C 487.44,101.957 487.107,101.624 486.5,101.5C 485.503,109.138 485.169,116.804 485.5,124.5C 498.167,124.5 510.833,124.5 523.5,124.5C 527.169,126.438 528.336,129.438 527,133.5C 524.774,144.948 520.607,155.615 514.5,165.5C 524.019,175.851 533.352,186.351 542.5,197C 538.652,201.016 534.652,204.849 530.5,208.5C 522.643,198.131 514.31,188.131 505.5,178.5C 495.892,189.945 484.892,199.778 472.5,208C 471.365,208.749 470.365,208.583 469.5,207.5C 467.192,204.025 464.692,200.692 462,197.5C 461.251,196.365 461.417,195.365 462.5,194.5C 483.96,181.708 499.293,163.708 508.5,140.5C 509.043,140.44 509.376,140.107 509.5,139.5C 496.851,138.501 484.184,138.168 471.5,138.5C 471.826,134.116 471.492,129.783 470.5,125.5C 469.914,125.291 469.414,124.957 469,124.5C 468.333,98.5 468.333,72.5 469,46.5C 474.407,45.5268 479.907,45.1934 485.5,45.5C 485.337,47.8568 485.503,50.1902 486,52.5C 495.644,43.351 506.144,42.1843 517.5,49C 523.759,55.7766 526.426,63.7766 525.5,73C 526.843,91.5475 518.509,102.381 500.5,105.5C 495.908,105.523 491.575,104.523 487.5,102.5 Z"/></g>
<g><path style="opacity:1" fill="#084f6b" d="M 483.5,122.5 C 479.5,122.5 475.5,122.5 471.5,122.5C 471.5,97.8333 471.5,73.1667 471.5,48.5C 475.5,48.5 479.5,48.5 483.5,48.5C 483.192,50.924 483.526,53.2573 484.5,55.5C 489.033,52.4023 493.7,49.569 498.5,47C 516.284,45.9949 524.617,54.4949 523.5,72.5C 524.62,83.6501 520.953,92.8167 512.5,100C 508.702,101.877 504.702,103.044 500.5,103.5C 494.468,102.82 488.801,101.153 483.5,98.5C 483.5,106.5 483.5,114.5 483.5,122.5 Z"/></g>
<g><path style="opacity:1" fill="#3ba4d8" d="M 613.5,46.5 C 613.187,49.2469 613.52,51.9135 614.5,54.5C 615.107,54.3764 615.44,54.0431 615.5,53.5C 615.833,53.5 616.167,53.5 616.5,53.5C 617.167,53.5 617.833,53.5 618.5,53.5C 617.024,55.5 615.191,57.1666 613,58.5C 611.595,55.3812 611.095,52.0479 611.5,48.5C 607.167,48.5 602.833,48.5 598.5,48.5C 598.5,66.5 598.5,84.5 598.5,102.5C 602.833,102.5 607.167,102.5 611.5,102.5C 611.171,89.3226 611.505,76.3226 612.5,63.5C 613.833,63.5 615.167,63.5 616.5,63.5C 615.791,64.404 614.791,64.7373 613.5,64.5C 613.5,77.8333 613.5,91.1667 613.5,104.5C 607.833,104.5 602.167,104.5 596.5,104.5C 596.333,85.1638 596.5,65.8305 597,46.5C 602.599,45.1752 608.099,45.1752 613.5,46.5 Z"/></g>
<g><path style="opacity:1" fill="#3da7d9" d="M 616.5,63.5 C 615.167,63.5 613.833,63.5 612.5,63.5C 619.86,60.5584 627.527,59.8918 635.5,61.5C 635.8,56.9014 635.467,52.4014 634.5,48C 628.603,48.1324 623.27,49.9658 618.5,53.5C 617.833,53.5 617.167,53.5 616.5,53.5C 622.083,47.4725 628.916,45.1391 637,46.5C 637.667,51.8333 637.667,57.1667 637,62.5C 636.586,62.9574 636.086,63.2907 635.5,63.5C 629.22,62.8894 622.887,62.8894 616.5,63.5 Z"/></g>
<g><path style="opacity:1" fill="#43aada" d="M 644.5,45.5 C 649.833,45.5 655.167,45.5 660.5,45.5C 660.5,65.1667 660.5,84.8333 660.5,104.5C 654.833,104.5 649.167,104.5 643.5,104.5C 643.179,84.7574 643.513,65.0907 644.5,45.5 Z"/></g>
<g><path style="opacity:1" fill="#3ba4d8" d="M 755.5,51.5 C 756.167,51.5 756.833,51.5 757.5,51.5C 755.66,53.6689 753.326,55.0023 750.5,55.5C 750.5,53.1667 750.5,50.8333 750.5,48.5C 746.167,48.5 741.833,48.5 737.5,48.5C 737.5,66.5 737.5,84.5 737.5,102.5C 741.833,102.5 746.167,102.5 750.5,102.5C 750.167,88.8171 750.501,75.1504 751.5,61.5C 752.622,60.3698 753.956,59.7031 755.5,59.5C 756.492,59.3284 757.158,59.6618 757.5,60.5C 756.193,61.1534 754.86,61.8201 753.5,62.5C 752.501,76.4841 752.167,90.4841 752.5,104.5C 746.833,104.5 741.167,104.5 735.5,104.5C 735.333,85.1638 735.5,65.8305 736,46.5C 741.407,45.5268 746.907,45.1934 752.5,45.5C 752.192,47.924 752.526,50.2573 753.5,52.5C 754.183,52.1373 754.85,51.8039 755.5,51.5 Z"/></g>
<g><path style="opacity:1" fill="#0071c0" d="M 755.5,59.5 C 753.956,59.7031 752.622,60.3698 751.5,61.5C 750.501,75.1504 750.167,88.8171 750.5,102.5C 746.167,102.5 741.833,102.5 737.5,102.5C 737.5,84.5 737.5,66.5 737.5,48.5C 741.833,48.5 746.167,48.5 750.5,48.5C 750.5,50.8333 750.5,53.1667 750.5,55.5C 753.326,55.0023 755.66,53.6689 757.5,51.5C 766.668,44.8665 775.834,44.8665 785,51.5C 786,53.5 787,55.5 788,57.5C 788.5,72.4963 788.667,87.4963 788.5,102.5C 784.167,102.5 779.833,102.5 775.5,102.5C 775.667,89.4957 775.5,76.4957 775,63.5C 773.833,61 772,59.1667 769.5,58C 765.833,57.3333 762.167,57.3333 758.5,58C 757.263,58.2321 756.263,58.7321 755.5,59.5 Z"/></g>
<g><path style="opacity:1" fill="#a7dbef" d="M 613.5,46.5 C 614.167,48.8333 614.833,51.1667 615.5,53.5C 615.44,54.0431 615.107,54.3764 614.5,54.5C 613.52,51.9135 613.187,49.2469 613.5,46.5 Z"/></g>
<g><path style="opacity:1" fill="#095d7e" d="M 187.5,48.5 C 183.5,48.5 179.5,48.5 175.5,48.5C 175.5,66.5 175.5,84.5 175.5,102.5C 174.503,84.3409 174.17,66.0076 174.5,47.5C 179.032,47.1818 183.366,47.5151 187.5,48.5 Z"/></g>
<g><path style="opacity:1" fill="#084f6a" d="M 187.5,48.5 C 187.5,66.5 187.5,84.5 187.5,102.5C 183.5,102.5 179.5,102.5 175.5,102.5C 175.5,84.5 175.5,66.5 175.5,48.5C 179.5,48.5 183.5,48.5 187.5,48.5 Z"/></g>
<g><path style="opacity:1" fill="#095f81" d="M 483.5,48.5 C 479.5,48.5 475.5,48.5 471.5,48.5C 471.5,73.1667 471.5,97.8333 471.5,122.5C 475.5,122.5 479.5,122.5 483.5,122.5C 479.366,123.485 475.032,123.818 470.5,123.5C 470.5,98.1667 470.5,72.8333 470.5,47.5C 475.032,47.1818 479.366,47.5151 483.5,48.5 Z"/></g>
<g><path style="opacity:1" fill="#0071c0" d="M 612.5,63.5 C 611.505,76.3226 611.171,89.3226 611.5,102.5C 607.167,102.5 602.833,102.5 598.5,102.5C 598.5,84.5 598.5,66.5 598.5,48.5C 602.833,48.5 607.167,48.5 611.5,48.5C 611.095,52.0479 611.595,55.3812 613,58.5C 615.191,57.1666 617.024,55.5 618.5,53.5C 623.27,49.9658 628.603,48.1324 634.5,48C 635.467,52.4014 635.8,56.9014 635.5,61.5C 627.527,59.8918 619.86,60.5584 612.5,63.5 Z"/></g>
<g><path style="opacity:1" fill="#0071c0" d="M 646.5,48.5 C 650.5,48.5 654.5,48.5 658.5,48.5C 658.5,66.5 658.5,84.5 658.5,102.5C 654.167,102.5 649.833,102.5 645.5,102.5C 645.17,84.3256 645.503,66.3256 646.5,48.5 Z"/></g>
<g><path style="opacity:1" fill="#088ccc" d="M 646.5,48.5 C 650.634,47.5151 654.968,47.1818 659.5,47.5C 659.83,66.0076 659.497,84.3409 658.5,102.5C 658.5,84.5 658.5,66.5 658.5,48.5C 654.5,48.5 650.5,48.5 646.5,48.5 Z"/></g>
<g><path style="opacity:1" fill="#2fa3d7" d="M 823.5,44.5 C 832.61,43.6004 841.277,45.1004 849.5,49C 850.471,54.0717 850.805,59.2384 850.5,64.5C 845.993,62.2032 841.326,60.0365 836.5,58C 824.223,56.4345 817.889,61.9345 817.5,74.5C 816.728,87.5595 822.728,93.7261 835.5,93C 840.592,91.1211 845.258,88.7877 849.5,86C 850.833,91.3333 850.833,96.6667 849.5,102C 836.122,108.201 823.122,107.534 810.5,100C 798.108,86.9661 796.274,72.4661 805,56.5C 810.033,50.5781 816.199,46.5781 823.5,44.5 Z"/></g>
<g><path style="opacity:1" fill="#0071c0" d="M 824.5,46.5 C 832.542,45.8071 840.209,47.1404 847.5,50.5C 848.833,54.1667 848.833,57.8333 847.5,61.5C 841.473,56.1043 834.473,54.271 826.5,56C 818.726,59.8726 815.06,66.2059 815.5,75C 815.291,90.1286 822.624,96.7953 837.5,95C 841.419,93.4597 844.919,91.2931 848,88.5C 848.167,90.5 848.333,92.5 848.5,94.5C 848.41,96.9637 847.743,99.1303 846.5,101C 834.853,105.929 823.52,105.262 812.5,99C 800.604,87.1492 798.438,73.6492 806,58.5C 810.727,52.0666 816.893,48.0666 824.5,46.5 Z"/></g>
<g><path style="opacity:1" fill="#27a0d6" d="M 757.5,60.5 C 757.158,59.6618 756.492,59.3284 755.5,59.5C 756.263,58.7321 757.263,58.2321 758.5,58C 762.167,57.3333 765.833,57.3333 769.5,58C 772,59.1667 773.833,61 775,63.5C 775.5,76.4957 775.667,89.4957 775.5,102.5C 779.833,102.5 784.167,102.5 788.5,102.5C 788.667,87.4963 788.5,72.4963 788,57.5C 787,55.5 786,53.5 785,51.5C 775.834,44.8665 766.668,44.8665 757.5,51.5C 756.833,51.5 756.167,51.5 755.5,51.5C 763.41,44.1226 772.41,42.6226 782.5,47C 785.821,49.4516 788.321,52.6182 790,56.5C 790.5,72.4965 790.667,88.4965 790.5,104.5C 784.833,104.5 779.167,104.5 773.5,104.5C 773.947,90.4271 773.447,76.4271 772,62.5C 771.167,61.6667 770.333,60.8333 769.5,60C 765.413,59.2375 761.413,59.4042 757.5,60.5 Z"/></g>
<g><path style="opacity:1" fill="#2ea0d1" d="M 77.5,45.5 C 83.4254,45.1918 89.2588,45.5251 95,46.5C 97.8443,57.5439 100.844,68.5439 104,79.5C 107.455,68.1708 111.288,57.0041 115.5,46C 120.202,45.1717 124.869,45.3384 129.5,46.5C 133.3,57.0677 136.8,67.7343 140,78.5C 143.197,67.9069 146.197,57.2402 149,46.5C 154.407,45.5268 159.907,45.1934 165.5,45.5C 160.524,64.9355 155.024,84.2688 149,103.5C 143.928,104.471 138.762,104.805 133.5,104.5C 130.135,92.0461 126.302,79.7128 122,67.5C 117.749,79.4183 113.582,91.4183 109.5,103.5C 104.544,104.494 99.544,104.827 94.5,104.5C 88.5213,84.8893 82.8547,65.2226 77.5,45.5 Z"/></g>
<g><path style="opacity:1" fill="#08506b" d="M 93.5,48.5 C 96.5382,60.9895 100.038,73.3228 104,85.5C 107.996,73.5109 111.996,61.5109 116,49.5C 120.118,48.2023 124.285,48.2023 128.5,49.5C 132.112,61.3381 136.112,73.0048 140.5,84.5C 144.143,72.596 147.476,60.596 150.5,48.5C 154.846,48.3343 159.179,48.501 163.5,49C 157.469,66.6245 152.136,84.4578 147.5,102.5C 143.445,102.824 139.445,102.491 135.5,101.5C 131.436,88.8076 127.269,76.1409 123,63.5C 122.586,63.0426 122.086,62.7093 121.5,62.5C 116.373,75.5495 112.039,88.8828 108.5,102.5C 104.233,102.797 100.066,102.464 96,101.5C 90.8296,84.1482 85.6629,66.8148 80.5,49.5C 84.6344,48.5151 88.9677,48.1818 93.5,48.5 Z"/></g>
<g><path style="opacity:1" fill="#0c77a1" d="M 93.5,48.5 C 88.9677,48.1818 84.6344,48.5151 80.5,49.5C 79.9569,49.44 79.6236,49.1067 79.5,48.5C 84.3181,47.1876 88.9848,47.1876 93.5,48.5 Z"/></g>
<g><path style="opacity:1" fill="#229dd0" d="M 490.5,56.5 C 500.466,54.3918 506.966,58.0585 510,67.5C 510.961,74.3362 510.295,81.0028 508,87.5C 502.373,94.1448 495.207,96.3115 486.5,94C 485.584,93.6258 484.75,93.1258 484,92.5C 483.333,81.8333 483.333,71.1667 484,60.5C 486.314,59.2668 488.481,57.9334 490.5,56.5 Z"/></g>
<g><path style="opacity:1" fill="#fbfdfe" d="M 490.5,58.5 C 500.117,56.5421 505.95,60.2087 508,69.5C 511.075,87.9269 503.575,95.2603 485.5,91.5C 485.168,81.4778 485.501,71.4778 486.5,61.5C 487.901,60.4793 489.235,59.4793 490.5,58.5 Z"/></g>
<g><path style="opacity:1" fill="#b8e2f2" d="M 390.5,70.5 C 380.013,71.4944 369.346,71.8278 358.5,71.5C 358.5,77.5 358.5,83.5 358.5,89.5C 369.679,89.1721 380.679,89.5054 391.5,90.5C 380.167,90.5 368.833,90.5 357.5,90.5C 357.5,83.8333 357.5,77.1667 357.5,70.5C 368.5,70.5 379.5,70.5 390.5,70.5 Z"/></g>
<g><path style="opacity:1" fill="#2b9fd1" d="M 399.5,45.5 C 405.509,45.3338 411.509,45.5005 417.5,46C 421.673,51.6679 426.007,57.1679 430.5,62.5C 434.943,57.1298 439.276,51.6298 443.5,46C 449.167,45.3333 454.833,45.3333 460.5,46C 461.451,46.7175 461.617,47.5509 461,48.5C 454.167,57.3333 447.333,66.1667 440.5,75C 447.378,84.5889 454.378,94.0889 461.5,103.5C 454.833,104.833 448.167,104.833 441.5,103.5C 437.853,97.86 433.853,92.5266 429.5,87.5C 425.115,92.5505 421.115,97.8838 417.5,103.5C 411.167,104.833 404.833,104.833 398.5,103.5C 405.5,94.1667 412.5,84.8333 419.5,75.5C 412.859,66.358 406.025,57.358 399,48.5C 398.53,47.4232 398.697,46.4232 399.5,45.5 Z"/></g>
<g><path style="opacity:1" fill="#08506b" d="M 402.5,49.5 C 407.316,48.3503 412.316,48.1837 417.5,49C 421.48,55.1391 425.813,60.9724 430.5,66.5C 434.711,60.5775 439.045,54.7442 443.5,49C 448.167,48.3333 452.833,48.3333 457.5,49C 450.766,57.3969 444.432,66.0636 438.5,75C 444.767,84.271 451.433,93.271 458.5,102C 453.5,102.667 448.5,102.667 443.5,102C 438.975,96.1473 434.475,90.314 430,84.5C 425.004,89.6748 420.504,95.3415 416.5,101.5C 411.533,102.662 406.533,102.829 401.5,102C 408.543,93.3948 415.21,84.5615 421.5,75.5C 415.647,66.4513 409.314,57.7846 402.5,49.5 Z"/></g>
<g><path style="opacity:1" fill="#28a0d6" d="M 553.5,44.5 C 578.454,42.1207 589.787,53.454 587.5,78.5C 574.5,78.5 561.5,78.5 548.5,78.5C 548.674,86.5064 552.674,91.3397 560.5,93C 569.701,94.2114 578.034,92.0448 585.5,86.5C 586.662,91.467 586.829,96.467 586,101.5C 570.866,108.445 556.033,107.945 541.5,100C 533.581,93.5893 529.915,85.2559 530.5,75C 531.259,59.4317 538.926,49.265 553.5,44.5 Z"/></g>
<g><path style="opacity:1" fill="#0070c0" d="M 553.5,46.5 C 576.189,43.8593 586.856,53.8593 585.5,76.5C 572.5,76.5 559.5,76.5 546.5,76.5C 546.51,89.3426 553.01,95.6759 566,95.5C 572.699,95.4784 578.699,93.4784 584,89.5C 584.499,93.1516 584.665,96.8183 584.5,100.5C 574.383,103.341 564.05,104.174 553.5,103C 539.073,99.0615 532.073,89.5615 532.5,74.5C 533.255,60.2659 540.255,50.9326 553.5,46.5 Z"/></g>
<g><path style="opacity:1" fill="#1f9ed5" d="M 555.5,53.5 C 567.854,52.5208 573.521,58.1875 572.5,70.5C 563.833,70.5 555.167,70.5 546.5,70.5C 545.597,62.6332 548.597,56.9665 555.5,53.5 Z"/></g>
<g><path style="opacity:1" fill="#f5fbfd" d="M 555.5,55.5 C 565.676,54.0655 570.676,58.3988 570.5,68.5C 563.167,68.5 555.833,68.5 548.5,68.5C 548.248,65.6802 548.748,63.0135 550,60.5C 551.812,58.6997 553.645,57.0331 555.5,55.5 Z"/></g>
<g><path style="opacity:1" fill="#28a0d6" d="M 692.5,44.5 C 717.454,42.1207 728.787,53.454 726.5,78.5C 713.5,78.5 700.5,78.5 687.5,78.5C 687.674,86.5064 691.674,91.3397 699.5,93C 708.701,94.2114 717.034,92.0448 724.5,86.5C 725.662,91.467 725.829,96.467 725,101.5C 709.866,108.445 695.033,107.945 680.5,100C 672.581,93.5893 668.915,85.2559 669.5,75C 670.259,59.4317 677.926,49.265 692.5,44.5 Z"/></g>
<g><path style="opacity:1" fill="#0070c0" d="M 692.5,46.5 C 715.189,43.8593 725.856,53.8593 724.5,76.5C 711.5,76.5 698.5,76.5 685.5,76.5C 685.51,89.3426 692.01,95.6759 705,95.5C 711.699,95.4784 717.699,93.4784 723,89.5C 723.499,93.1516 723.665,96.8183 723.5,100.5C 713.383,103.341 703.05,104.174 692.5,103C 678.073,99.0615 671.073,89.5615 671.5,74.5C 672.255,60.2659 679.255,50.9326 692.5,46.5 Z"/></g>
<g><path style="opacity:1" fill="#1f9ed5" d="M 694.5,53.5 C 706.854,52.5208 712.521,58.1875 711.5,70.5C 702.833,70.5 694.167,70.5 685.5,70.5C 684.597,62.6332 687.597,56.9665 694.5,53.5 Z"/></g>
<g><path style="opacity:1" fill="#f5fbfd" d="M 694.5,55.5 C 704.676,54.0655 709.676,58.3988 709.5,68.5C 702.167,68.5 694.833,68.5 687.5,68.5C 687.248,65.6802 687.748,63.0135 689,60.5C 690.812,58.6997 692.645,57.0331 694.5,55.5 Z"/></g>
<g><path style="opacity:1" fill="#28a0d6" d="M 877.5,44.5 C 902.454,42.1207 913.787,53.454 911.5,78.5C 898.5,78.5 885.5,78.5 872.5,78.5C 872.674,86.5064 876.674,91.3397 884.5,93C 893.701,94.2114 902.034,92.0448 909.5,86.5C 910.662,91.467 910.829,96.467 910,101.5C 894.866,108.445 880.033,107.945 865.5,100C 857.581,93.5893 853.915,85.2559 854.5,75C 855.259,59.4317 862.926,49.265 877.5,44.5 Z"/></g>
<g><path style="opacity:1" fill="#0070c0" d="M 877.5,46.5 C 900.189,43.8593 910.856,53.8593 909.5,76.5C 896.5,76.5 883.5,76.5 870.5,76.5C 870.51,89.3426 877.01,95.6759 890,95.5C 896.699,95.4784 902.699,93.4784 908,89.5C 908.499,93.1516 908.665,96.8183 908.5,100.5C 898.383,103.341 888.05,104.174 877.5,103C 863.073,99.0615 856.073,89.5615 856.5,74.5C 857.255,60.2659 864.255,50.9326 877.5,46.5 Z"/></g>
<g><path style="opacity:1" fill="#1f9ed5" d="M 879.5,53.5 C 891.854,52.5208 897.521,58.1875 896.5,70.5C 887.833,70.5 879.167,70.5 870.5,70.5C 869.597,62.6332 872.597,56.9665 879.5,53.5 Z"/></g>
<g><path style="opacity:1" fill="#f5fbfd" d="M 879.5,55.5 C 889.676,54.0655 894.676,58.3988 894.5,68.5C 887.167,68.5 879.833,68.5 872.5,68.5C 872.248,65.6802 872.748,63.0135 874,60.5C 875.812,58.6997 877.645,57.0331 879.5,55.5 Z"/></g>
<g><path style="opacity:1" fill="#27a2d6" d="M 631.5,121.5 C 636.5,121.5 641.5,121.5 646.5,121.5C 646.5,140.167 646.5,158.833 646.5,177.5C 641.5,177.5 636.5,177.5 631.5,177.5C 631.5,158.833 631.5,140.167 631.5,121.5 Z"/></g>
<g><path style="opacity:1" fill="#cae9f5" d="M 487.5,102.5 C 486.509,109.313 486.175,116.313 486.5,123.5C 499.011,123.171 511.345,123.505 523.5,124.5C 510.833,124.5 498.167,124.5 485.5,124.5C 485.169,116.804 485.503,109.138 486.5,101.5C 487.107,101.624 487.44,101.957 487.5,102.5 Z"/></g>
<g><path style="opacity:1" fill="#098ecd" d="M 644.5,175.5 C 644.5,158.5 644.5,141.5 644.5,124.5C 640.833,124.5 637.167,124.5 633.5,124.5C 633.5,141.5 633.5,158.5 633.5,175.5C 632.503,158.341 632.17,141.008 632.5,123.5C 636.833,123.5 641.167,123.5 645.5,123.5C 645.83,141.008 645.497,158.341 644.5,175.5 Z"/></g>
<g><path style="opacity:1" fill="#006fc0" d="M 644.5,175.5 C 640.833,175.5 637.167,175.5 633.5,175.5C 633.5,158.5 633.5,141.5 633.5,124.5C 637.167,124.5 640.833,124.5 644.5,124.5C 644.5,141.5 644.5,158.5 644.5,175.5 Z"/></g>
<g><path style="opacity:1" fill="#08506c" d="M 473.5,126.5 C 490.17,126.333 506.837,126.5 523.5,127C 524,127.5 524.5,128 525,128.5C 525.408,132.962 524.741,137.295 523,141.5C 520.189,149.957 516.689,158.123 512.5,166C 521.301,176.304 530.301,186.47 539.5,196.5C 536.833,199.833 533.833,202.833 530.5,205.5C 522.89,194.891 514.557,184.891 505.5,175.5C 496.269,186.233 485.936,195.733 474.5,204C 473.241,204.982 471.908,205.315 470.5,205C 467.65,202.214 465.816,199.047 465,195.5C 487.282,182.05 502.782,163.05 511.5,138.5C 498.851,137.501 486.184,137.168 473.5,137.5C 473.5,133.833 473.5,130.167 473.5,126.5 Z"/></g>
<g><path style="opacity:1" fill="#2d9ecf" d="M 371.5,142.5 C 363.5,142.5 355.5,142.5 347.5,142.5C 347.171,157.676 347.504,172.676 348.5,187.5C 358.5,187.5 368.5,187.5 378.5,187.5C 378.805,192.762 378.471,197.928 377.5,203C 352.261,203.827 327.094,203.661 302,202.5C 301.198,197.581 301.365,192.748 302.5,188C 312.494,187.5 322.494,187.334 332.5,187.5C 332.5,172.5 332.5,157.5 332.5,142.5C 323.833,142.5 315.167,142.5 306.5,142.5C 306.197,137.57 306.531,132.737 307.5,128C 329.164,127.5 350.831,127.333 372.5,127.5C 372.821,132.695 372.487,137.695 371.5,142.5 Z"/></g>
<g><path style="opacity:1" fill="#89ceea" d="M 425.5,125.5 C 435.626,127.158 445.96,128.158 456.5,128.5C 445.833,128.5 435.167,128.5 424.5,128.5C 424.263,127.209 424.596,126.209 425.5,125.5 Z"/></g>
<g><path style="opacity:1" fill="#2da2d7" d="M 766.5,142.5 C 758.5,142.5 750.5,142.5 742.5,142.5C 742.171,157.676 742.504,172.676 743.5,187.5C 753.172,187.334 762.839,187.5 772.5,188C 773.635,192.748 773.802,197.581 773,202.5C 747.906,203.661 722.739,203.827 697.5,203C 696.529,197.928 696.195,192.762 696.5,187.5C 706.833,187.5 717.167,187.5 727.5,187.5C 727.5,172.5 727.5,157.5 727.5,142.5C 718.833,142.5 710.167,142.5 701.5,142.5C 701.5,137.5 701.5,132.5 701.5,127.5C 723.5,127.5 745.5,127.5 767.5,127.5C 767.821,132.695 767.487,137.695 766.5,142.5 Z"/></g>
<g><path style="opacity:1" fill="#084f6a" d="M 309.5,129.5 C 329.833,129.5 350.167,129.5 370.5,129.5C 370.5,133.167 370.5,136.833 370.5,140.5C 362.248,140.184 354.081,140.518 346,141.5C 345.5,157.497 345.333,173.497 345.5,189.5C 355.5,189.5 365.5,189.5 375.5,189.5C 375.5,193.167 375.5,196.833 375.5,200.5C 351.833,200.5 328.167,200.5 304.5,200.5C 304.5,196.833 304.5,193.167 304.5,189.5C 314.5,189.5 324.5,189.5 334.5,189.5C 334.5,173.5 334.5,157.5 334.5,141.5C 326.35,140.507 318.017,140.174 309.5,140.5C 309.5,136.833 309.5,133.167 309.5,129.5 Z"/></g>
<g><path style="opacity:1" fill="#0070c0" d="M 770.5,200.5 C 746.833,200.5 723.167,200.5 699.5,200.5C 699.5,196.833 699.5,193.167 699.5,189.5C 709.5,189.5 719.5,189.5 729.5,189.5C 729.5,173.167 729.5,156.833 729.5,140.5C 720.833,140.5 712.167,140.5 703.5,140.5C 703.5,136.833 703.5,133.167 703.5,129.5C 724.167,129.5 744.833,129.5 765.5,129.5C 765.5,133.167 765.5,136.833 765.5,140.5C 757.248,140.184 749.081,140.518 741,141.5C 740.5,157.497 740.333,173.497 740.5,189.5C 750.5,189.5 760.5,189.5 770.5,189.5C 770.5,193.167 770.5,196.833 770.5,200.5 Z"/></g>
<g><path style="opacity:1" fill="#27a1d6" d="M 604.5,125.5 C 617.217,125.296 622.05,131.296 619,143.5C 614.86,148.211 609.694,149.711 603.5,148C 593.937,140.094 594.27,132.594 604.5,125.5 Z"/></g>
<g><path style="opacity:1" fill="#0173c1" d="M 605.5,127.5 C 616.127,127.447 619.96,132.447 617,142.5C 611.333,147.833 605.667,147.833 600,142.5C 597.328,135.845 599.161,130.845 605.5,127.5 Z"/></g>
<g><path style="opacity:1" fill="#4cb7e0" d="M 13.5,138.5 C 25.8333,138.5 38.1667,138.5 50.5,138.5C 50.7373,139.791 50.404,140.791 49.5,141.5C 37.7014,139.84 25.7014,138.84 13.5,138.5 Z"/></g>
<g><path style="opacity:1" fill="#4eb7e0" d="M 471.5,138.5 C 484.184,138.168 496.851,138.501 509.5,139.5C 509.376,140.107 509.043,140.44 508.5,140.5C 496.167,139.833 483.833,139.167 471.5,138.5 Z"/></g>
<g><path style="opacity:1" fill="#209fd5" d="M 605.5,130.5 C 613.382,129.546 616.549,132.879 615,140.5C 610.667,145.833 606.333,145.833 602,140.5C 600.756,136.191 601.923,132.858 605.5,130.5 Z"/></g>
<g><path style="opacity:1" fill="#f8fcfd" d="M 606.5,132.5 C 612,131.831 614.167,134.165 613,139.5C 607.333,144.167 604.333,142.833 604,135.5C 604.698,134.309 605.531,133.309 606.5,132.5 Z"/></g>
<g><path style="opacity:1" fill="#0c83b1" d="M 309.5,129.5 C 309.5,133.167 309.5,136.833 309.5,140.5C 318.017,140.174 326.35,140.507 334.5,141.5C 325.833,141.5 317.167,141.5 308.5,141.5C 308.183,137.298 308.517,133.298 309.5,129.5 Z"/></g>
<g><path style="opacity:1" fill="#29a2d6" d="M 785.5,123.5 C 790.089,124.553 794.422,126.386 798.5,129C 805.676,133.755 812.676,138.755 819.5,144C 817.041,147.75 814.708,151.583 812.5,155.5C 811.635,156.583 810.635,156.749 809.5,156C 799.943,148.777 790.109,141.944 780,135.5C 781.496,131.498 783.329,127.498 785.5,123.5 Z"/></g>
<g><path style="opacity:1" fill="#0071c0" d="M 786.5,125.5 C 797.028,130.348 806.861,136.348 816,143.5C 815.279,147.608 813.446,151.275 810.5,154.5C 801.746,147.581 792.58,141.248 783,135.5C 783.359,131.942 784.525,128.609 786.5,125.5 Z"/></g>
<g><path style="opacity:1" fill="#c2e6f3" d="M 371.5,142.5 C 364.018,143.492 356.352,143.825 348.5,143.5C 348.5,158.167 348.5,172.833 348.5,187.5C 347.504,172.676 347.171,157.676 347.5,142.5C 355.5,142.5 363.5,142.5 371.5,142.5 Z"/></g>
<g><path style="opacity:1" fill="#d9eff8" d="M 766.5,142.5 C 759.018,143.492 751.352,143.825 743.5,143.5C 743.5,158.167 743.5,172.833 743.5,187.5C 742.504,172.676 742.171,157.676 742.5,142.5C 750.5,142.5 758.5,142.5 766.5,142.5 Z"/></g>
<g><path style="opacity:1" fill="#28a0d2" d="M 146.5,117.5 C 151.574,118.969 156.574,120.636 161.5,122.5C 156.632,134.207 149.298,144.207 139.5,152.5C 138.5,170.821 138.167,189.155 138.5,207.5C 133.238,207.805 128.072,207.471 123,206.5C 122.667,192.5 122.333,178.5 122,164.5C 112.705,170.064 102.872,174.398 92.5,177.5C 91.5581,177.392 90.7247,177.059 90,176.5C 89.1243,172.415 87.9576,168.415 86.5,164.5C 87.09,163.201 88.09,162.368 89.5,162C 114.649,154.791 133.649,139.957 146.5,117.5 Z"/></g>
<g><path style="opacity:1" fill="#08506b" d="M 136.5,204.5 C 132.833,204.5 129.167,204.5 125.5,204.5C 125.829,189.99 125.496,175.657 124.5,161.5C 113.877,166.976 102.877,171.643 91.5,175.5C 91.5385,172.193 90.8718,169.026 89.5,166C 89.6448,165.228 89.9781,164.561 90.5,164C 115.628,156.615 134.962,141.782 148.5,119.5C 151.64,121.406 154.973,122.74 158.5,123.5C 153.542,134.65 146.376,144.316 137,152.5C 136.5,169.83 136.333,187.163 136.5,204.5 Z"/></g>
<g><path style="opacity:1" fill="#0a6a8f" d="M 124.5,161.5 C 125.496,175.657 125.829,189.99 125.5,204.5C 129.167,204.5 132.833,204.5 136.5,204.5C 132.702,205.483 128.702,205.817 124.5,205.5C 124.5,190.833 124.5,176.167 124.5,161.5 Z"/></g>
<g><path style="opacity:1" fill="#28a1d6" d="M 571.5,132.5 C 575.308,132.163 578.974,132.663 582.5,134C 596.359,150.224 609.859,166.724 623,183.5C 623.638,184.609 624.138,185.775 624.5,187C 622.43,191.806 620.097,196.473 617.5,201C 615.613,201.163 614.113,200.329 613,198.5C 601.309,181.771 589.142,165.438 576.5,149.5C 569.04,162.252 561.707,175.085 554.5,188C 553.5,188.667 552.5,188.667 551.5,188C 549.372,184.87 546.872,182.037 544,179.5C 543.48,177.711 543.813,176.044 545,174.5C 551,163.833 557,153.167 563,142.5C 565.15,138.497 567.984,135.164 571.5,132.5 Z"/></g>
<g><path style="opacity:1" fill="#0071c0" d="M 571.5,134.5 C 578.191,133.429 583.358,135.762 587,141.5C 598.286,156.455 609.953,171.121 622,185.5C 621.397,190.379 619.397,194.712 616,198.5C 603.065,180.949 589.898,163.615 576.5,146.5C 567.925,159.304 560.092,172.638 553,186.5C 550.872,183.37 548.372,180.537 545.5,178C 553.297,162.893 561.964,148.393 571.5,134.5 Z"/></g>
<g><path style="opacity:1" fill="#2ca0d2" d="M 269.5,154.5 C 280.37,153.867 285.203,158.867 284,169.5C 280.96,175.603 276.126,177.769 269.5,176C 260.222,168.798 260.222,161.631 269.5,154.5 Z"/></g>
<g><path style="opacity:1" fill="#08516d" d="M 270.5,156.5 C 279.477,156.309 283.31,160.642 282,169.5C 276.57,176.145 271.236,176.145 266,169.5C 264.379,163.923 265.879,159.589 270.5,156.5 Z"/></g>
<g><path style="opacity:1" fill="#2aa2d6" d="M 836.5,147.5 C 837.873,147.343 839.207,147.51 840.5,148C 844.295,150.213 847.628,152.88 850.5,156C 838.776,186.219 816.776,203.053 784.5,206.5C 782.578,201.32 781.245,195.987 780.5,190.5C 808.046,187.727 826.712,173.394 836.5,147.5 Z"/></g>
<g><path style="opacity:1" fill="#0070c0" d="M 838.5,149.5 C 841.815,151.808 845.149,154.141 848.5,156.5C 840.339,177.161 826.005,191.661 805.5,200C 799.44,202.135 793.273,203.635 787,204.5C 785.008,200.692 783.508,196.692 782.5,192.5C 809.64,189.257 828.306,174.924 838.5,149.5 Z"/></g>
<g><path style="opacity:1" fill="#28a1d6" d="M 862.5,124.5 C 880.503,124.333 898.503,124.5 916.5,125C 918.01,126.351 919.01,128.018 919.5,130C 917.041,142.545 912.708,154.378 906.5,165.5C 915.725,175.603 924.725,185.937 933.5,196.5C 929.849,200.652 926.016,204.652 922,208.5C 914.043,198.208 905.71,188.208 897,178.5C 887.472,190.868 875.972,200.868 862.5,208.5C 858.627,204.791 855.294,200.624 852.5,196C 875,182.838 891,164.172 900.5,140C 888.167,139.667 875.833,139.333 863.5,139C 862.531,134.263 862.197,129.43 862.5,124.5 Z"/></g>
<g><path style="opacity:1" fill="#0070c0" d="M 864.5,126.5 C 881.503,126.333 898.503,126.5 915.5,127C 916,127.5 916.5,128 917,128.5C 915.218,141.914 910.718,154.414 903.5,166C 913.044,175.709 922.044,185.876 930.5,196.5C 927.85,199.651 925.016,202.651 922,205.5C 914.043,195.208 905.71,185.208 897,175.5C 887.487,187.687 876.153,197.687 863,205.5C 859.409,202.931 857.076,199.598 856,195.5C 872.667,185.5 886,172.167 896,155.5C 899.069,149.791 901.236,143.791 902.5,137.5C 889.833,137.5 877.167,137.5 864.5,137.5C 864.5,133.833 864.5,130.167 864.5,126.5 Z"/></g>
<g><path style="opacity:1" fill="#299fd1" d="M 194.5,121.5 C 199.566,121.34 204.566,121.84 209.5,123C 210.428,123.388 211.095,124.055 211.5,125C 205.881,146.73 199.548,168.23 192.5,189.5C 201.961,188.955 211.294,187.621 220.5,185.5C 216.208,176.414 211.541,167.58 206.5,159C 209.569,155.952 213.235,153.619 217.5,152C 218.944,151.219 220.277,151.386 221.5,152.5C 230.966,168.266 238.966,184.766 245.5,202C 245.355,202.772 245.022,203.439 244.5,204C 239.653,206.095 234.653,207.595 229.5,208.5C 228.833,205.833 228.167,203.167 227.5,200.5C 207.865,202.793 188.198,204.793 168.5,206.5C 168.167,201.167 167.833,195.833 167.5,190.5C 169.924,190.808 172.257,190.474 174.5,189.5C 182.585,167.247 189.251,144.58 194.5,121.5 Z"/></g>
<g><path style="opacity:1" fill="#08506c" d="M 196.5,123.5 C 200.466,124.162 204.466,124.495 208.5,124.5C 203.257,147.14 196.923,169.473 189.5,191.5C 198.179,190.865 206.846,190.032 215.5,189C 218.451,188.904 221.118,188.071 223.5,186.5C 218.627,177.253 213.627,168.087 208.5,159C 212.079,157.294 215.579,155.461 219,153.5C 228.475,168.782 236.641,184.782 243.5,201.5C 239.618,203.071 235.785,204.738 232,206.5C 230.619,204.365 229.619,202.032 229,199.5C 227.769,198.892 226.436,198.559 225,198.5C 206.853,200.831 188.686,202.831 170.5,204.5C 170.167,200.5 169.833,196.5 169.5,192.5C 171.833,192.5 174.167,192.5 176.5,192.5C 183.95,169.694 190.617,146.694 196.5,123.5 Z"/></g>
<g><path style="opacity:1" fill="#239ed1" d="M 49.5,141.5 C 50.404,140.791 50.7373,139.791 50.5,138.5C 38.1667,138.5 25.8333,138.5 13.5,138.5C 12.5139,134.03 12.1805,129.363 12.5,124.5C 30.5123,124.167 48.5123,124.5 66.5,125.5C 69.6726,128.291 70.1726,131.625 68,135.5C 65.2015,146.094 61.0349,156.094 55.5,165.5C 61.5353,172.881 68.0353,179.881 75,186.5C 77.9027,189.732 80.4027,193.232 82.5,197C 79.3273,201.851 75.3273,205.518 70.5,208C 63.3275,197.485 55.3275,187.652 46.5,178.5C 36.6649,190.508 25.1649,200.508 12,208.5C 8.4605,204.626 5.29383,200.459 2.5,196C 18.5986,186.235 31.7653,173.402 42,157.5C 44.7872,152.261 47.2872,146.928 49.5,141.5 Z"/></g>
<g><path style="opacity:1" fill="#08506c" d="M 14.5,126.5 C 31.17,126.333 47.8367,126.5 64.5,127C 65,127.5 65.5,128 66,128.5C 66.4078,132.962 65.7411,137.295 64,141.5C 61.1886,149.957 57.6886,158.123 53.5,166C 62.3011,176.304 71.3011,186.47 80.5,196.5C 77.8496,199.651 75.0162,202.651 72,205.5C 64.0332,195.034 55.5332,185.034 46.5,175.5C 36.7016,187.302 25.3683,197.302 12.5,205.5C 9.87789,203.589 7.71123,201.255 6,198.5C 5.33333,197.5 5.33333,196.5 6,195.5C 28.7426,181.929 44.2426,162.596 52.5,137.5C 39.8333,137.5 27.1667,137.5 14.5,137.5C 14.5,133.833 14.5,130.167 14.5,126.5 Z"/></g>
<g><path style="opacity:1" fill="#289fd2" d="M 425.5,125.5 C 424.596,126.209 424.263,127.209 424.5,128.5C 435.167,128.5 445.833,128.5 456.5,128.5C 458.11,148.389 453.276,166.722 442,183.5C 430.71,196.563 416.543,204.563 399.5,207.5C 398.657,202.462 397.657,197.462 396.5,192.5C 422.002,186.658 436.335,170.658 439.5,144.5C 440.043,144.44 440.376,144.107 440.5,143.5C 433.01,142.181 425.677,142.181 418.5,143.5C 412.24,155.27 403.906,165.437 393.5,174C 392.5,174.667 391.5,174.667 390.5,174C 387.642,170.642 384.975,167.142 382.5,163.5C 393.944,153.561 402.444,141.561 408,127.5C 409.15,124.232 409.984,120.899 410.5,117.5C 415.862,117.472 421.195,117.806 426.5,118.5C 426.326,120.861 425.993,123.194 425.5,125.5 Z"/></g>
<g><path style="opacity:1" fill="#0b759f" d="M 422.5,129.5 C 433.5,129.5 444.5,129.5 455.5,129.5C 455.81,132.713 455.477,135.713 454.5,138.5C 454.5,135.833 454.5,133.167 454.5,130.5C 443.654,130.828 432.987,130.494 422.5,129.5 Z"/></g>
<g><path style="opacity:1" fill="#08506b" d="M 422.5,129.5 C 432.987,130.494 443.654,130.828 454.5,130.5C 454.5,133.167 454.5,135.833 454.5,138.5C 453.249,173.343 435.916,195.676 402.5,205.5C 400.867,202.099 399.534,198.599 398.5,195C 425.085,186.571 439.751,168.404 442.5,140.5C 434.16,140.334 425.827,140.5 417.5,141C 411.641,152.721 403.641,162.721 393.5,171C 390.564,170.107 388.064,168.274 386,165.5C 385.333,164.5 385.333,163.5 386,162.5C 399.134,151.237 407.967,137.237 412.5,120.5C 416.55,119.227 420.55,119.394 424.5,121C 423.287,123.687 422.62,126.52 422.5,129.5 Z"/></g>
<g><path style="opacity:1" fill="#bfe5f3" d="M 418.5,143.5 C 425.677,142.181 433.01,142.181 440.5,143.5C 440.376,144.107 440.043,144.44 439.5,144.5C 432.687,143.509 425.687,143.175 418.5,143.5 Z"/></g>
<g><path style="opacity:1" fill="#0786ca" d="M 699.5,189.5 C 699.5,193.167 699.5,196.833 699.5,200.5C 723.167,200.5 746.833,200.5 770.5,200.5C 746.672,201.498 722.672,201.831 698.5,201.5C 698.183,197.298 698.517,193.298 699.5,189.5 Z"/></g>
<g><path style="opacity:1" fill="#2ca2d7" d="M 672.5,120.5 C 677.833,120.5 683.167,120.5 688.5,120.5C 688.848,138.529 688.348,156.529 687,174.5C 680.587,197.247 665.587,207.914 642,206.5C 640.198,201.905 638.698,197.238 637.5,192.5C 649.049,192.499 658.882,188.499 667,180.5C 669.427,176.46 671.094,172.126 672,167.5C 672.5,151.837 672.667,136.17 672.5,120.5 Z"/></g>
<g><path style="opacity:1" fill="#0071c0" d="M 674.5,122.5 C 678.5,122.5 682.5,122.5 686.5,122.5C 686.667,136.504 686.5,150.504 686,164.5C 684.189,190.81 670.022,204.476 643.5,205.5C 642.131,201.908 641.298,198.241 641,194.5C 648.998,193.612 656.498,191.112 663.5,187C 669.197,182.108 672.697,175.941 674,168.5C 674.5,153.17 674.667,137.837 674.5,122.5 Z"/></g>
</svg>
